<svg width="20" height="21" viewBox="0 0 20 21" fill="none" xmlns="http://www.w3.org/2000/svg">
<g clip-path="url(#clip0_29_561)">
<path d="M9.60295 3.63964H4.05318C3.63264 3.63964 3.22932 3.81998 2.93195 4.14099C2.63459 4.462 2.46753 4.89738 2.46753 5.35135V17.3333C2.46753 17.7873 2.63459 18.2227 2.93195 18.5437C3.22932 18.8647 3.63264 19.045 4.05318 19.045H15.1527C15.5733 19.045 15.9766 18.8647 16.2739 18.5437C16.5713 18.2227 16.7384 17.7873 16.7384 17.3333V11.3423M15.5491 2.35586C15.8645 2.01538 16.2923 1.8241 16.7384 1.8241C17.1844 1.8241 17.6122 2.01538 17.9276 2.35586C18.243 2.69634 18.4202 3.15813 18.4202 3.63964C18.4202 4.12115 18.243 4.58294 17.9276 4.92342L10.3958 13.0541L7.22447 13.9099L8.0173 10.4865L15.5491 2.35586Z" stroke="#A32C30" stroke-width="2" stroke-linecap="round" stroke-linejoin="round"/>
</g>
<defs>
<clipPath id="clip0_29_561">
<rect width="19.0278" height="20.5405" fill="white" transform="translate(0.881836 0.216187)"/>
</clipPath>
</defs>
</svg>
