<svg width="20" height="21" viewBox="0 0 20 21" fill="none" xmlns="http://www.w3.org/2000/svg">
<g clip-path="url(#clip0_29_266)">
<path d="M9.60301 3.63958H4.05324C3.6327 3.63958 3.22938 3.81992 2.93202 4.14093C2.63465 4.46194 2.46759 4.89732 2.46759 5.35129V17.3333C2.46759 17.7872 2.63465 18.2226 2.93202 18.5436C3.22938 18.8646 3.6327 19.045 4.05324 19.045H15.1528C15.5733 19.045 15.9766 18.8646 16.274 18.5436C16.5714 18.2226 16.7384 17.7872 16.7384 17.3333V11.3423M15.5492 2.3558C15.8646 2.01532 16.2924 1.82404 16.7384 1.82404C17.1845 1.82404 17.6123 2.01532 17.9277 2.3558C18.2431 2.69628 18.4203 3.15807 18.4203 3.63958C18.4203 4.12109 18.2431 4.58288 17.9277 4.92336L10.3958 13.054L7.22453 13.9098L8.01736 10.4864L15.5492 2.3558Z" stroke="#A32C30" stroke-width="2" stroke-linecap="round" stroke-linejoin="round"/>
</g>
<defs>
<clipPath id="clip0_29_266">
<rect width="19.0278" height="20.5405" fill="white" transform="translate(0.881943 0.216187)"/>
</clipPath>
</defs>
</svg>
