<svg width="20" height="21" viewBox="0 0 20 21" fill="none" xmlns="http://www.w3.org/2000/svg">
<g clip-path="url(#clip0_29_31)">
<path d="M9.6027 3.63964H4.05293C3.63239 3.63964 3.22908 3.81998 2.93171 4.14099C2.63434 4.462 2.46729 4.89738 2.46729 5.35135V17.3333C2.46729 17.7873 2.63434 18.2227 2.93171 18.5437C3.22908 18.8647 3.63239 19.045 4.05293 19.045H15.1525C15.573 19.045 15.9763 18.8647 16.2737 18.5437C16.5711 18.2227 16.7381 17.7873 16.7381 17.3333V11.3423M15.5489 2.35586C15.8643 2.01538 16.2921 1.8241 16.7381 1.8241C17.1842 1.8241 17.6119 2.01538 17.9274 2.35586C18.2428 2.69634 18.42 3.15813 18.42 3.63964C18.42 4.12115 18.2428 4.58294 17.9274 4.92342L10.3955 13.0541L7.22423 13.9099L8.01705 10.4865L15.5489 2.35586Z" stroke="#A32C30" stroke-width="2" stroke-linecap="round" stroke-linejoin="round"/>
</g>
<defs>
<clipPath id="clip0_29_31">
<rect width="19.0278" height="20.5405" fill="white" transform="translate(0.881836 0.216187)"/>
</clipPath>
</defs>
</svg>
